<svg width="25" height="24" viewBox="0 0 25 24" fill="none" xmlns="http://www.w3.org/2000/svg">
<ellipse cx="12.9575" cy="12" rx="12.0415" ry="12" fill="#555A7B"/>
<path d="M19.2338 16.0278C19.1949 15.735 19.0251 15.4826 18.7679 15.3353L15.7477 13.6047C15.3778 13.3927 14.9086 13.4544 14.6066 13.7549L14.0118 14.3469C13.8535 14.5045 13.603 14.5184 13.4293 14.3793C12.9603 14.0038 12.4986 13.5904 12.0569 13.1508C11.6152 12.7113 11.1999 12.2518 10.8225 11.785C10.6827 11.6121 10.6967 11.3629 10.8551 11.2053L11.4499 10.6133C11.7518 10.3129 11.8139 9.84592 11.6009 9.47771L9.86196 6.472C9.71389 6.21607 9.46028 6.04709 9.1661 6.00835C8.87189 5.96954 8.58282 6.06719 8.37299 6.27602L7.47662 7.1681C6.85101 7.79074 6.84097 8.92965 7.44833 10.3751C8.03235 11.7649 9.12223 13.2949 10.5172 14.6832C11.9121 16.0715 13.4495 17.1561 14.8461 17.7373C15.561 18.0349 16.2012 18.1835 16.7418 18.1835C17.2994 18.1835 17.7508 18.0253 18.0685 17.7091L18.9649 16.8171C19.1747 16.6082 19.2727 16.3205 19.2338 16.0278ZM15.5499 13.9467L18.5701 15.6773C18.7194 15.7629 18.8181 15.9095 18.8406 16.0795C18.8596 16.2222 18.8224 16.3628 18.7379 16.476L14.7241 14.1962L14.8871 14.034C15.0624 13.8595 15.335 13.8236 15.5499 13.9467ZM9.11406 6.39966C9.28495 6.42216 9.43225 6.52031 9.51823 6.66896L11.2572 9.67467C11.3809 9.88852 11.3448 10.1598 11.1695 10.3342L11.0198 10.4832L8.71642 6.50189C8.81058 6.4325 8.92319 6.39482 9.04059 6.39482C9.06494 6.39482 9.0895 6.39643 9.11406 6.39966ZM17.788 17.43C17.291 17.9247 16.2745 17.9039 14.9991 17.3731C13.649 16.8113 12.157 15.7569 10.7976 14.4041C9.43833 13.0513 8.3788 11.5664 7.81424 10.2228C7.28086 8.95352 7.26005 7.94186 7.75708 7.44719L8.42251 6.78492L10.7293 10.7723L10.5746 10.9263C10.2728 11.2267 10.2465 11.7022 10.5135 12.0325C10.8998 12.5102 11.3247 12.9804 11.7764 13.43C12.2282 13.8795 12.7006 14.3024 13.1807 14.6868C13.5125 14.9525 13.9903 14.9264 14.2922 14.626L14.4334 14.4855L18.4527 16.7685L17.788 17.43Z" fill="white"/>
</svg>
